<?xml version="1.0" standalone="no"?><!DOCTYPE svg PUBLIC "-//W3C//DTD SVG 1.1//EN" "http://www.w3.org/Graphics/SVG/1.1/DTD/svg11.dtd"><svg t="1508545132586" class="icon" style="" viewBox="0 0 1024 1024" version="1.1" xmlns="http://www.w3.org/2000/svg" p-id="7985" xmlns:xlink="http://www.w3.org/1999/xlink" width="256" height="256"><defs><style type="text/css"></style></defs><path d="M954.4 355.1c9.6-14.4 6.4-33.6-6.4-44.9-14.4-11.2-33.6-8-44.9 6.4-1.6 1.6-179.5 211.5-391 211.5-205.1 0-391-211.5-392.6-213.1-11.2-12.8-32-14.4-44.9-3.2-12.8 11.2-14.4 32-3.2 44.9 3.2 4.8 41.7 48.1 102.6 96.1l-81.7 84.9c-12.8 12.8-11.2 33.6 1.6 44.9 3.2 6.4 11.2 9.6 19.2 9.6s16-3.2 22.4-9.6l88.1-91.3c41.7 28.8 91.3 56.1 145.8 75.3l-33.6 113.8c-4.8 17.6 4.8 35.3 22.4 40.1h9.6c14.4 0 27.2-9.6 30.4-24L432 582.7c25.6 4.8 52.9 8 80.1 8 27.2 0 54.5-3.2 80.1-8l33.6 112.2c3.2 14.4 17.6 24 30.4 24 3.2 0 6.4 0 8-1.6 17.6-4.8 27.2-22.4 22.4-40.1L653.2 565c54.5-19.2 104.2-46.5 145.8-75.3l86.5 89.7c6.4 6.4 14.4 9.6 22.4 9.6 8 0 16-3.2 22.4-9.6 12.8-12.8 12.8-32 1.6-44.9l-81.7-84.9c65.8-48 104.2-94.5 104.2-94.5z" p-id="7986" fill="#bfbfbf"></path></svg>